<svg width="412" height="388" viewBox="0 0 412 388" fill="none" xmlns="http://www.w3.org/2000/svg">
<path d="M381.658 348H30V129.069H381.658V348ZM38.1821 339.818H373.476V137.251H38.1821V339.818Z" fill="#E5E5E5"/>
<path d="M377.567 133.161H34.0908V343.909H377.567V133.161Z" fill="white"/>
<path d="M377.567 186.574V173.634H329.919V133.16H316.979V173.634H232.151V133.16H219.211V173.634H88.3738V133.16H75.4338V173.634H34.0908V186.574H75.4338V236.896H34.0908V249.835H75.4338V303.752H34.0908V316.692H145.166V343.909H158.105V316.692H219.211V343.909H232.151V316.692H377.567V303.752H232.151V249.835H377.567V236.896H329.919V186.574L377.567 186.574ZM219.211 186.574V202.389H88.3738V186.574H219.211ZM88.3738 215.329H219.211V236.896H88.3738V215.329ZM88.3738 303.752V249.835H145.166V303.752L88.3738 303.752ZM219.211 303.752H158.105V249.835H219.211V303.752ZM316.979 236.896H232.151V186.574H316.979V236.896Z" fill="#CBCBCB"/>
<path d="M288.106 102.047C288.106 136.315 226.059 212.654 226.059 212.654C226.059 212.654 164.011 136.315 164.011 102.047C164.011 85.5914 170.548 69.8094 182.184 58.1733C193.821 46.5371 209.603 40 226.059 40C242.515 40 258.297 46.5371 269.933 58.1733C281.569 69.8094 288.106 85.5914 288.106 102.047Z" fill="#E18B22"/>
<path d="M254.424 99.3497C254.424 104.96 252.76 110.444 249.644 115.108C246.527 119.773 242.097 123.408 236.914 125.555C231.731 127.702 226.028 128.264 220.526 127.169C215.024 126.075 209.969 123.373 206.003 119.406C202.036 115.44 199.334 110.386 198.24 104.883C197.145 99.3812 197.707 93.678 199.854 88.495C202.001 83.3121 205.636 78.8822 210.301 75.7654C214.965 72.6487 220.449 70.9851 226.059 70.9851C229.785 70.9834 233.474 71.7159 236.916 73.1408C240.358 74.5656 243.486 76.6549 246.12 79.2891C248.754 81.9233 250.843 85.0509 252.268 88.493C253.693 91.9351 254.426 95.6243 254.424 99.3497Z" fill="white"/>
<path d="M226.059 257.436C235.296 257.436 242.785 249.947 242.785 240.71C242.785 231.472 235.296 223.984 226.059 223.984C216.821 223.984 209.333 231.472 209.333 240.71C209.333 249.947 216.821 257.436 226.059 257.436Z" fill="#E18B22"/>
</svg>
